#tb 0: 1/12
#media_type 0: video
#codec_id 0: rawvideo
#dimensions 0: 320x240
#sar 0: 0/1
0,          0,          0,        1,    86400, 0x5d58253d
0,          1,          1,        1,    86400, 0x0626d90d
0,          2,          2,        1,    86400, 0x4ecb5048
0,          3,          3,        1,    86400, 0xf54ea8f7
0,          4,          4,        1,    86400, 0xa777c21b
0,          5,          5,        1,    86400, 0x7d71e329
0,          6,          6,        1,    86400, 0x2903252a
0,          7,          7,        1,    86400, 0xbe7302c1
0,          8,          8,        1,    86400, 0x734423a8
0,          9,          9,        1,    86400, 0x4f422bab
0,         10,         10,        1,    86400, 0x21fbf200
0,         11,         11,        1,    86400, 0xabf299a7
0,         12,         12,        1,    86400, 0x400b4bf8
0,         13,         13,        1,    86400, 0x61d044f9
0,         14,         14,        1,    86400, 0x72fb94af
0,         15,         15,        1,    86400, 0xf522e717
0,         16,         16,        1,    86400, 0xad3e0297
0,         17,         17,        1,    86400, 0xbef57a5f
0,         18,         18,        1,    86400, 0x450ca6e7
0,         19,         19,        1,    86400, 0x76ae56e6
0,         20,         20,        1,    86400, 0x7b9b7555
0,         21,         21,        1,    86400, 0xb522ce0d
0,         22,         22,        1,    86400, 0xaa9b8536
0,         23,         23,        1,    86400, 0x019d00c4
0,         24,         24,        1,    86400, 0xb0f4dee5
0,         25,         25,        1,    86400, 0xa7482e52
0,         26,         26,        1,    86400, 0x3c87fc35
0,         27,         27,        1,    86400, 0xb6d1dede
0,         28,         28,        1,    86400, 0x926ee647
0,         29,         29,        1,    86400, 0x8747bfc7
0,         30,         30,        1,    86400, 0x61569e9b
0,         31,         31,        1,    86400, 0x9209a5f6
0,         32,         32,        1,    86400, 0x5f89ef12
0,         33,         33,        1,    86400, 0x00bfc18f
0,         34,         34,        1,    86400, 0xcc6f2f62
0,         35,         35,        1,    86400, 0x3ab9cfbf
0,         36,         36,        1,    86400, 0x936f2386
0,         37,         37,        1,    86400, 0x2203a76c
0,         38,         38,        1,    86400, 0xd3d248a3
0,         39,         39,        1,    86400, 0x148af7b8
0,         40,         40,        1,    86400, 0x437bffae
0,         41,         41,        1,    86400, 0x6876c6d5
0,         42,         42,        1,    86400, 0x49fc1429
0,         43,         43,        1,    86400, 0x181efd2c
0,         44,         44,        1,    86400, 0x26ecd294
0,         45,         45,        1,    86400, 0xdcdb609e
0,         46,         46,        1,    86400, 0xd3cb0ecb
0,         47,         47,        1,    86400, 0x528ffc4b
0,         48,         48,        1,    86400, 0xb536c7b4
0,         49,         49,        1,    86400, 0xae4ab8c5
0,         50,         50,        1,    86400, 0xe14fee77
0,         51,         51,        1,    86400, 0xcd3e9e85
0,         52,         52,        1,    86400, 0x71cfba54
0,         53,         53,        1,    86400, 0x9b309c62
0,         54,         54,        1,    86400, 0x91b31881
0,         55,         55,        1,    86400, 0xae8bda28
0,         56,         56,        1,    86400, 0x8db0f87a
0,         57,         57,        1,    86400, 0xcd974e98
0,         58,         58,        1,    86400, 0x4405116e
0,         59,         59,        1,    86400, 0xfe4cc7b4
0,         60,         60,        1,    86400, 0x17d27206
0,         61,         61,        1,    86400, 0x11743762
